<?xml version="1.0" encoding="UTF-8"?>
<svg id="Vrstva_2" data-name="Vrstva 2" xmlns="http://www.w3.org/2000/svg" viewBox="0 0 665 665">
  <defs>
    <style>
      .cls-1 {
        fill: #00ff94;
      }
    </style>
  </defs>
  <g id="Vrstva_1-2" data-name="Vrstva 1">
    <rect class="cls-1" width="665" height="665" rx="33.81" ry="33.81"/>
    <g>
      <path d="M319.17,159.62c9.17-.67,20.29-1.69,27.29,5.24,9,8.9,7.66,23.93-2.52,31.32-6.95,5.05-23.42,4.21-32.65,5.85-99.24,17.6-145.11,140.65-78,217.41,76.29,87.26,215.11,42.25,228.92-71.21,1.47-12.1-1.52-27.33,11.85-33.71s27.86,2.55,29.08,17.32c3.28,39.66-20,91.26-46.72,119.8-91.84,98.1-253.38,56.42-289.11-71.5-28.58-102.33,45.14-212.72,151.85-220.52Z"/>
      <path d="M463.88,228.52l-42.01,41.66c-18.27,16.28-43.88-4.08-31.7-25.42l44.65-45.3h-33.39c-1.01,0-7.91-4.68-9.03-5.89-10.33-11.14-4.87-28.02,8.99-32.64,26.26.36,56.53-3.02,82.56-.77,11.26.97,18.16,9.09,19.21,20.07,2.3,23.87-1.73,51.2.03,75.44-.83,16.75-19.83,27-33.04,14.92-1.6-1.47-6.27-8.59-6.27-10.23v-31.82Z"/>
    </g>
  </g>
</svg>